<svg width="23.000000" height="16.000000" viewBox="0 0 23 16" fill="none" xmlns="http://www.w3.org/2000/svg" xmlns:xlink="http://www.w3.org/1999/xlink">
	<desc>
			Created with Pixso.
	</desc>
	<defs/>
	<path id="Лого" d="M1.68 0.09C-0.34 0.52 -0.54 1.78 1.06 4C1.25 4.25 1.44 4.49 1.49 4.54C1.64 4.67 2.28 5.14 2.92 5.59C3.49 5.99 5.43 7 5.65 7C5.72 7 5.98 7.11 6.25 7.24C6.51 7.37 6.78 7.47 6.85 7.47C6.92 7.47 7.11 7.53 7.28 7.61C7.44 7.68 7.87 7.83 8.22 7.94C9.92 8.47 9.62 9.48 7.88 9.1C7.66 9.05 7.1 8.94 6.63 8.85C6.16 8.77 5.68 8.66 5.58 8.61C4.4 8.09 2.01 7.49 2.01 7.72C2.01 8.06 3.23 9.86 3.79 10.34C4.44 10.9 6.17 11.95 6.45 11.95C6.52 11.95 6.76 12.03 6.98 12.13C7.65 12.43 8.32 12.62 8.68 12.62C9.87 12.61 10.5 13 10.16 13.52C9.97 13.81 7.81 13.88 6.91 13.62C5.78 13.3 5.18 13.35 5.42 13.74C5.52 13.89 7.64 15.28 7.77 15.28C7.83 15.28 8.06 15.37 8.3 15.49C9.21 15.94 12.67 16.16 14.24 15.86C16.06 15.51 16.17 15.49 16.36 15.38C16.47 15.33 16.66 15.28 16.8 15.28C18.04 15.28 20.52 13.92 21.97 12.43C23.21 11.16 23.26 10.94 22.47 10.19C22.3 10.03 22.09 9.75 22.01 9.57C21.8 9.13 19.19 6.51 18.28 5.84C17.37 5.16 15.79 4.09 15.34 3.85C15.15 3.75 14.74 3.52 14.43 3.33C14.11 3.15 13.62 2.89 13.33 2.76C13.04 2.62 12.72 2.47 12.62 2.42C12.28 2.26 10.82 1.75 10.19 1.57C9.85 1.48 9.47 1.36 9.34 1.3C9.21 1.25 8.86 1.14 8.58 1.07C7.21 0.7 6.89 0.61 6.62 0.52C6.46 0.47 6.21 0.43 6.07 0.43C5.92 0.43 5.71 0.38 5.6 0.32C5.07 0.03 2.65 -0.11 1.68 0.09Z" fill="#D1C12B" fill-opacity="1.000000" fill-rule="evenodd"/>
</svg>
