<svg width="18.000000" height="18.000000" viewBox="0 0 18 18" fill="none" xmlns="http://www.w3.org/2000/svg" xmlns:xlink="http://www.w3.org/1999/xlink">
	<desc>
			Created with Pixso.
	</desc>
	<defs/>
	<path id="Vector" d="M13 1C15.2 1 17 2.79 17 5L17 13C17 15.2 15.2 17 13 17L5 17C2.79 17 1 15.2 1 13L1 5C1 2.79 2.79 1 5 1L13 1Z" stroke="#FFFFFF" stroke-opacity="1.000000" stroke-width="2.000000" stroke-linejoin="round"/>
	<path id="Vector" d="M9 12C7.34 12 6 10.65 6 9C6 7.34 7.34 6 9 6C10.65 6 12 7.34 12 9C12 10.65 10.65 12 9 12Z" stroke="#FFFFFF" stroke-opacity="1.000000" stroke-width="2.000000" stroke-linejoin="round"/>
	<path id="Vector" d="M13.5 4.5L13.5 4.5" stroke="#FFFFFF" stroke-opacity="1.000000" stroke-width="2.000000" stroke-linejoin="round" stroke-linecap="round"/>
</svg>
