<svg width="17.737305" height="15.000000" viewBox="0 0 17.7373 15" fill="none" xmlns="http://www.w3.org/2000/svg" xmlns:xlink="http://www.w3.org/1999/xlink">
	<desc>
			Created with Pixso.
	</desc>
	<defs/>
	<path id="Снимок экрана 2022-09-22 в 22.25 1 (Traced)" d="M16.67 0.05C16.57 0.08 16.18 0.23 16.07 0.28C16.04 0.29 15.84 0.37 15.63 0.45C15.42 0.53 15.23 0.6 15.2 0.61C15.17 0.62 14.98 0.7 14.77 0.78C14.56 0.86 14.37 0.94 14.35 0.95C14.32 0.96 14.1 1.04 13.86 1.14C13.62 1.23 13.4 1.32 13.37 1.33C13.34 1.34 13.15 1.41 12.94 1.49C12.73 1.57 12.54 1.65 12.52 1.66C12.49 1.67 12.44 1.69 12.41 1.7C12.38 1.71 12.18 1.79 11.97 1.87C11.76 1.95 11.57 2.03 11.54 2.04C11.52 2.05 11.32 2.12 11.11 2.21C10.9 2.29 10.71 2.36 10.69 2.37C10.66 2.38 10.44 2.47 10.2 2.56C9.96 2.66 9.74 2.74 9.71 2.75C9.69 2.76 9.49 2.84 9.28 2.92C9.08 3 8.88 3.08 8.84 3.09C8.81 3.1 8.76 3.12 8.74 3.13C8.71 3.14 8.52 3.22 8.31 3.3C8.1 3.38 7.91 3.45 7.88 3.46C7.86 3.48 7.66 3.55 7.45 3.63C7.25 3.71 7.05 3.79 7.03 3.8C7 3.81 6.78 3.89 6.54 3.99C6.3 4.08 6.08 4.17 6.05 4.18C6.03 4.19 5.83 4.26 5.63 4.34C5.42 4.42 5.22 4.5 5.19 4.51C5.16 4.52 5.11 4.54 5.08 4.56C5.06 4.57 4.86 4.64 4.65 4.72C4.44 4.81 4.25 4.88 4.22 4.89C4.2 4.9 4 4.98 3.8 5.06C3.59 5.14 3.39 5.21 3.37 5.22C3.34 5.23 3.12 5.32 2.88 5.41C2.64 5.51 2.42 5.59 2.39 5.6C2.37 5.61 2.15 5.7 1.91 5.79C1.66 5.89 1.45 5.97 1.42 5.98C1.39 5.99 1.2 6.07 0.99 6.15C0.78 6.23 0.59 6.31 0.56 6.32C0.54 6.33 0.48 6.35 0.43 6.37C-0.2 6.6 -0.13 7.58 0.52 7.58C0.53 7.58 0.57 7.59 0.6 7.6C0.63 7.61 0.74 7.64 0.84 7.67C0.94 7.7 1.09 7.74 1.17 7.77C1.26 7.79 1.36 7.82 1.41 7.84C1.52 7.87 1.81 7.95 1.88 7.98C1.92 7.99 1.98 8.01 2.04 8.02C2.15 8.05 2.44 8.14 2.52 8.17C2.56 8.18 2.63 8.2 2.68 8.21C2.73 8.23 2.85 8.26 2.93 8.29C3.02 8.31 3.17 8.36 3.26 8.38C3.34 8.41 3.46 8.44 3.51 8.46C3.56 8.47 3.63 8.49 3.66 8.5C3.7 8.51 3.8 8.55 3.9 8.57C4 8.6 4.11 8.63 4.14 8.64C4.17 8.66 4.26 8.68 4.34 8.7C4.53 8.76 4.53 8.76 4.59 8.96C4.62 9.05 4.66 9.19 4.69 9.26C4.71 9.33 4.76 9.51 4.81 9.64C4.85 9.78 4.91 9.98 4.95 10.09C4.98 10.21 5.05 10.41 5.09 10.55C5.13 10.68 5.19 10.85 5.21 10.93C5.23 11 5.3 11.2 5.35 11.38C5.41 11.55 5.47 11.76 5.49 11.83C5.52 11.9 5.58 12.1 5.64 12.28C5.69 12.46 5.76 12.66 5.78 12.73C5.8 12.8 5.86 12.97 5.9 13.11C6.08 13.71 6.12 13.8 6.25 13.94C6.45 14.14 6.8 14.2 7.05 14.08C7.17 14.03 7.73 13.48 9.01 12.16C9.44 11.72 9.37 11.74 9.68 11.96C9.94 12.15 10.15 12.31 10.45 12.53C10.86 12.83 10.99 12.92 11.26 13.13C11.42 13.24 11.72 13.46 11.92 13.61C12.13 13.76 12.45 14 12.63 14.13C12.82 14.27 13.05 14.44 13.15 14.51C13.24 14.58 13.38 14.68 13.45 14.74C14.14 15.25 14.86 14.97 15.01 14.13C15.02 14.09 15.04 14.01 15.05 13.96C15.06 13.9 15.08 13.81 15.09 13.74C15.11 13.68 15.14 13.52 15.16 13.4C15.19 13.27 15.22 13.12 15.24 13.05C15.25 12.99 15.27 12.89 15.28 12.83C15.3 12.77 15.32 12.67 15.33 12.6C15.34 12.54 15.37 12.43 15.38 12.38C15.39 12.32 15.41 12.21 15.43 12.15C15.44 12.08 15.47 11.93 15.49 11.82C15.59 11.35 15.65 11.1 15.66 11.01C15.67 10.96 15.7 10.85 15.71 10.78C15.73 10.71 15.75 10.61 15.76 10.56C15.78 10.47 15.83 10.21 15.93 9.75C15.95 9.63 15.98 9.48 16 9.42C16.01 9.35 16.03 9.25 16.04 9.19C16.06 9.13 16.08 9.03 16.09 8.97C16.1 8.9 16.13 8.8 16.14 8.74C16.15 8.68 16.17 8.58 16.18 8.53C16.2 8.42 16.26 8.13 16.36 7.71C16.38 7.59 16.41 7.44 16.42 7.37C16.44 7.31 16.46 7.21 16.47 7.15C16.48 7.09 16.51 6.99 16.52 6.92C16.53 6.86 16.56 6.71 16.59 6.59C16.69 6.13 16.74 5.87 16.76 5.78C16.77 5.73 16.79 5.63 16.8 5.56C16.82 5.48 16.84 5.38 16.85 5.33C16.87 5.24 16.92 4.98 17.02 4.52C17.05 4.4 17.08 4.26 17.09 4.19C17.1 4.12 17.12 4.02 17.14 3.96C17.15 3.91 17.17 3.8 17.18 3.74C17.2 3.67 17.22 3.57 17.23 3.51C17.25 3.45 17.27 3.36 17.28 3.3C17.3 3.19 17.36 2.91 17.45 2.48C17.47 2.36 17.5 2.21 17.52 2.15C17.53 2.08 17.55 1.98 17.56 1.92C17.58 1.86 17.6 1.76 17.61 1.69C17.62 1.63 17.66 1.47 17.69 1.35C17.89 0.43 17.4 -0.2 16.67 0.05ZM14.57 2.72C14.73 2.85 14.68 2.92 13.98 3.54C13.76 3.73 13.58 3.89 13.57 3.89C13.57 3.9 13.47 3.99 13.36 4.08C13.25 4.18 13.15 4.27 13.15 4.27C13.14 4.28 12.96 4.44 12.74 4.63C12.53 4.82 12.34 4.98 12.34 4.99C12.33 4.99 12.23 5.08 12.12 5.18C12.01 5.27 11.92 5.36 11.91 5.37C11.9 5.37 11.72 5.53 11.51 5.72C11.29 5.91 11.11 6.07 11.1 6.08C11.1 6.09 11 6.17 10.89 6.27C10.78 6.37 10.68 6.45 10.67 6.46C10.67 6.47 10.49 6.63 10.27 6.82C10.05 7 9.87 7.16 9.87 7.17C9.86 7.18 9.76 7.26 9.65 7.36C9.54 7.46 9.44 7.55 9.44 7.55C9.43 7.56 9.25 7.72 9.03 7.91C8.82 8.1 8.64 8.26 8.63 8.26C8.62 8.27 8.53 8.36 8.42 8.45C8.31 8.55 8.21 8.64 8.2 8.65C8.2 8.65 8.01 8.81 7.8 9C7.58 9.19 7.4 9.35 7.4 9.36C7.39 9.36 7.29 9.45 7.18 9.55C6.96 9.75 6.87 9.89 6.87 10.04C6.87 10.09 6.86 10.19 6.85 10.27C6.84 10.35 6.82 10.53 6.8 10.66C6.79 10.8 6.77 10.99 6.75 11.09C6.74 11.19 6.72 11.38 6.71 11.52C6.63 12.24 6.58 12.56 6.55 12.59C6.5 12.63 6.46 12.56 6.4 12.38C6.37 12.28 6.32 12.14 6.3 12.07C6.26 11.93 6.15 11.57 6.06 11.29C6.04 11.2 5.99 11.07 5.97 11C5.95 10.93 5.9 10.79 5.87 10.69C5.84 10.59 5.8 10.45 5.78 10.38C5.76 10.31 5.7 10.14 5.66 10C5.62 9.86 5.57 9.69 5.54 9.62C5.52 9.55 5.48 9.41 5.45 9.32C5.42 9.23 5.37 9.06 5.33 8.93C5.16 8.41 5.16 8.41 6.18 7.77C6.69 7.46 6.83 7.37 7.04 7.24C7.14 7.18 7.29 7.09 7.38 7.03C7.47 6.97 7.62 6.88 7.71 6.82C7.8 6.77 7.88 6.72 7.88 6.72C7.89 6.72 7.97 6.67 8.05 6.62C8.23 6.51 8.5 6.34 8.75 6.18C9.05 6 9.24 5.88 9.41 5.77C9.51 5.71 9.75 5.56 9.95 5.44C10.5 5.1 10.6 5.03 10.79 4.91C10.89 4.85 11.05 4.76 11.14 4.7C11.23 4.64 11.38 4.55 11.46 4.5C11.55 4.44 11.63 4.39 11.64 4.39C11.64 4.39 11.72 4.35 11.81 4.29C11.98 4.18 12.25 4.01 12.5 3.85C12.8 3.67 12.99 3.55 13.17 3.44C13.27 3.38 13.51 3.23 13.7 3.11C13.9 2.99 14.13 2.84 14.22 2.78C14.4 2.67 14.48 2.66 14.57 2.72Z" fill="#FFFFFF" fill-opacity="1.000000" fill-rule="evenodd"/>
</svg>
