<svg width="26.349121" height="15.000000" viewBox="0 0 26.3491 15" fill="none" xmlns="http://www.w3.org/2000/svg" xmlns:xlink="http://www.w3.org/1999/xlink">
	<desc>
			Created with Pixso.
	</desc>
	<defs/>
	<path id="Снимок экрана 2022-09-22 в 22.26 1 (Traced)" d="M10.68 0.02C9.69 0.11 9.12 0.34 8.84 0.76C8.7 0.96 8.72 1.01 8.98 1.07C9.83 1.28 10.14 1.66 10.31 2.73C10.38 3.14 10.38 5.59 10.32 5.98C10.14 7.02 9.95 7.33 9.53 7.33C9 7.32 8.18 6.37 7.13 4.55C7.09 4.48 6.97 4.28 6.86 4.09C6.69 3.78 6.07 2.55 5.91 2.18C5.87 2.1 5.8 1.94 5.74 1.81C5.69 1.69 5.64 1.58 5.64 1.56C5.64 1.32 5.27 0.88 4.94 0.74L4.74 0.65L2.75 0.65C0.17 0.65 0 0.69 0 1.22C-0.01 1.44 0.01 1.48 0.35 2.23C0.77 3.17 1.56 4.76 2.08 5.72C2.16 5.86 2.29 6.1 2.37 6.25C2.45 6.39 2.61 6.66 2.71 6.84C2.82 7.03 2.94 7.24 2.98 7.31C3.03 7.39 3.08 7.47 3.09 7.49C3.11 7.51 3.16 7.59 3.2 7.67C3.44 8.09 4.4 9.57 4.66 9.9C4.72 9.98 4.89 10.21 5.04 10.41C6.69 12.62 8.61 14.06 10.64 14.61C11.09 14.73 11.22 14.76 11.47 14.81C11.62 14.83 11.83 14.87 11.93 14.89C12.23 14.94 14.57 14.93 14.74 14.88C15.14 14.74 15.37 14.44 15.37 14.06C15.37 13.07 15.64 12.08 16.01 11.73C16.57 11.19 17.1 11.49 18.5 13.12C19.47 14.25 20.12 14.72 21.03 14.96C21.35 15.05 25.3 14.94 25.61 14.84C27.05 14.37 26.38 13.06 23.11 9.99C21.86 8.82 21.78 8.51 22.42 7.52C22.54 7.34 22.74 7.05 22.88 6.87C23.12 6.54 23.69 5.81 23.77 5.71C23.82 5.66 24.28 5.03 24.51 4.73C25.88 2.87 26.54 1.51 26.29 1.04C26.09 0.64 26.02 0.63 23.16 0.66C20.19 0.69 20.32 0.66 20.04 1.36C20.02 1.41 19.97 1.53 19.92 1.64C19.88 1.74 19.84 1.83 19.84 1.84C19.84 1.85 19.8 1.95 19.75 2.07C19.7 2.18 19.62 2.36 19.57 2.47C19.4 2.85 18.96 3.73 18.77 4.06C18.66 4.24 18.54 4.45 18.5 4.52C18.43 4.64 18.33 4.81 17.93 5.43C16.61 7.48 15.7 7.84 15.41 6.43C15.36 6.19 15.37 3.63 15.43 2.1C15.47 1.16 15.36 0.71 15.03 0.42C14.85 0.25 14.65 0.18 14.08 0.06C13.82 0 11.21 -0.03 10.68 0.02Z" fill="#FFFFFF" fill-opacity="1.000000" fill-rule="evenodd"/>
</svg>
